<svg t="1706071251169" class="icon" viewBox="0 0 1024 1024" version="1.1" xmlns="http://www.w3.org/2000/svg" p-id="16330" width="32" height="32"><path d="M511.7 64.2C265 64.2 64.2 265 64.2 511.7S265 959.2 511.7 959.2s447.5-200.8 447.5-447.5S758.5 64.2 511.7 64.2z m0 836.1c-214.3 0-388.6-174.3-388.6-388.6s174.3-388.6 388.6-388.6 388.6 174.3 388.6 388.6S726 900.3 511.7 900.3z" p-id="16331" fill="#2c2c2c"></path><path d="M372.2 460.8c32.5 0 58.9-26.4 58.9-58.9 0-25.3-16-46.6-38.3-55l-87.6-69c-12.8-10.1-31.3-7.9-41.4 4.9-10.1 12.8-7.9 31.3 4.9 41.4l55.5 43.7c-6.8 9.6-11 21.3-11 34 0.1 32.5 26.5 58.9 59 58.9zM513.3 563.9c-117.7 0-184.5 87.9-187.3 91.6-9.7 13-7 31.4 6 41.1 13 9.7 31.4 7.1 41.2-5.8 2.1-2.8 52.6-68 140.1-68 91 0 134 63.7 135.8 66.4 5.6 8.7 15.1 13.4 24.7 13.4 5.4 0 10.9-1.5 15.9-4.7 13.7-8.8 17.7-27 8.9-40.7-2.5-3.7-61.2-93.3-185.3-93.3zM709.3 283L616 356.5c-3.4 2.6-5.9 5.9-7.7 9.4-7.7 10-12.5 22.3-12.5 35.9 0 32.5 26.4 58.9 58.9 58.9s58.9-26.4 58.9-58.9c0-14-5.1-26.7-13.2-36.8l45.4-35.8c12.8-10 15-28.6 4.9-41.4-10.1-12.6-28.6-14.9-41.4-4.8z" p-id="16332" fill="#2c2c2c"></path></svg>