<svg t="1706070671136" class="icon" viewBox="0 0 1024 1024" version="1.1" xmlns="http://www.w3.org/2000/svg" p-id="3470" width="32" height="32"><path d="M512 64C264.6 64 64 264.6 64 512s200.6 448 448 448 448-200.6 448-448S759.4 64 512 64z m271.5 719.5c-35.3 35.3-76.4 63-122.1 82.3-47.3 20-97.6 30.2-149.5 30.2s-102.2-10.1-149.5-30.2c-45.7-19.3-86.8-47-122.1-82.3s-63-76.4-82.3-122.1c-20-47.3-30.2-97.6-30.2-149.5s10.1-102.2 30.2-149.5c19.3-45.7 47-86.8 82.3-122.1s76.4-63 122.1-82.3c47.3-20 97.6-30.2 149.5-30.2s102.2 10.1 149.5 30.2c45.7 19.3 86.8 47 122.1 82.3s63 76.4 82.3 122.1c20 47.3 30.2 97.6 30.2 149.5s-10.1 102.2-30.2 149.5c-19.3 45.8-47 86.8-82.3 122.1z" fill="#2c2c2c" p-id="3471"></path><path d="M336 416m-48 0a48 48 0 1 0 96 0 48 48 0 1 0-96 0Z" fill="#2c2c2c" p-id="3472"></path><path d="M688 416m-48 0a48 48 0 1 0 96 0 48 48 0 1 0-96 0Z" fill="#2c2c2c" p-id="3473"></path><path d="M512 544c-85.4 0-155.4 67.3-159.8 151.6-0.2 4.6 3.4 8.4 8 8.4h48c4.2 0 7.7-3.2 8.1-7.4 3.8-49.5 45.3-88.6 95.7-88.6s91.9 39.1 95.7 88.6c0.3 4.2 3.9 7.4 8.1 7.4h48c4.6 0 8.2-3.8 8-8.4C667.4 611.3 597.4 544 512 544z" fill="#2c2c2c" p-id="3474"></path></svg>