<svg t="1706071188215" class="icon" viewBox="0 0 1024 1024" version="1.1" xmlns="http://www.w3.org/2000/svg" p-id="14564" width="32" height="32"><path d="M512.199033 957.801299c-245.822708 0-445.797205-199.974497-445.797205-445.803345 0-245.821685 200.004173-445.797205 445.797205-445.797205 245.798149 0 445.802322 199.975521 445.802322 445.797205C958.001355 757.826801 758.026858 957.801299 512.199033 957.801299L512.199033 957.801299zM512.199033 129.885186c-210.702839 0-382.112768 171.408905-382.112768 382.111744 0 210.708979 171.408905 382.118907 382.112768 382.118907 210.707956 0 382.117884-171.409928 382.117884-382.118907C894.315894 301.294091 722.905966 129.885186 512.199033 129.885186L512.199033 129.885186zM513.253038 772.063037c-88.747253 0-171.059957-40.124859-225.799676-110.081141-10.825556-13.852496-8.405437-33.851992 5.447059-44.677549 13.818727-10.858302 33.846876-8.439206 44.706201 5.447059 42.573631 54.419424 106.60804 85.622076 175.646416 85.622076 69.767993 0 134.214794-31.742958 176.788425-87.119173 10.732435-13.94971 30.698163-16.59291 44.642756-5.859451 13.94971 10.732435 16.59291 30.726815 5.860475 44.642756C685.809069 731.238236 602.951967 772.063037 513.253038 772.063037L513.253038 772.063037zM369.956402 515.185552c-26.393113 0-47.761794-21.369703-47.761794-47.767933l0-63.685461c0-26.396183 21.36868-47.761794 47.761794-47.761794 26.39823 0 47.76691 21.364587 47.76691 47.761794l0 63.685461C417.723312 493.787196 396.324956 515.185552 369.956402 515.185552L369.956402 515.185552zM656.544559 515.185552c-26.368554 0-47.76691-21.369703-47.76691-47.767933l0-63.685461c0-26.396183 21.398356-47.761794 47.76691-47.761794 26.364461 0 47.762817 21.364587 47.762817 47.761794l0 63.685461C704.307376 493.787196 682.907996 515.185552 656.544559 515.185552L656.544559 515.185552zM656.544559 515.185552" fill="#2c2c2c" p-id="14565"></path></svg>